HIERARCHY
ROOT Hips
{
	OFFSET 0.000000 0.000000 0.000000
	CHANNELS 6 Xposition Yposition Zposition Xrotation Yrotation Zrotation
	JOINT LeftUpLeg_virtual
	{
		OFFSET 0.000000 0.000000 0.000000
		CHANNELS 3 Xrotation Yrotation Zrotation
		JOINT LeftUpLeg
		{
			OFFSET 11.394100 -6.187798 -0.413800
			CHANNELS 3 Xrotation Yrotation Zrotation
			JOINT LeftLeg
			{
				OFFSET 0.430247 -32.302673 3.732800
				CHANNELS 3 Xrotation Yrotation Zrotation
				JOINT LeftFoot
				{
					OFFSET -0.430247 -48.264931 -6.423300
					CHANNELS 3 Xrotation Yrotation Zrotation
					JOINT LeftToeBase
					{
						OFFSET 4.230900 -16.068199 23.438400
						CHANNELS 3 Xrotation Yrotation Zrotation
						JOINT LeftToe_End
						{
							OFFSET 4.510700 0.695400 19.974600
							CHANNELS 3 Xrotation Yrotation Zrotation
							End Site
							{
								OFFSET 0 0 0
							}
						}
					}
				}
			}
		}
	}
	JOINT RightUpLeg_virtual
	{
		OFFSET 0.000000 0.000000 0.000000
		CHANNELS 3 Xrotation Yrotation Zrotation
		JOINT RightUpLeg
		{
			OFFSET -11.333700 -6.187798 -0.413800
			CHANNELS 3 Xrotation Yrotation Zrotation
			JOINT RightLeg
			{
				OFFSET -0.430392 -32.302628 3.733000
				CHANNELS 3 Xrotation Yrotation Zrotation
				JOINT RightFoot
				{
					OFFSET 0.430392 -48.264973 -6.423500
					CHANNELS 3 Xrotation Yrotation Zrotation
					JOINT RightToeBase
					{
						OFFSET -4.230900 -16.068199 23.438400
						CHANNELS 3 Xrotation Yrotation Zrotation
						JOINT RightToe_End
						{
							OFFSET -4.510700 0.695400 19.974600
							CHANNELS 3 Xrotation Yrotation Zrotation
							End Site
							{
								OFFSET 0 0 0
							}
						}
					}
				}
			}
		}
	}
	JOINT Spine_virtual
	{
		OFFSET 0.000000 0.000000 0.000000
		CHANNELS 3 Xrotation Yrotation Zrotation
		JOINT Spine
		{
			OFFSET -0.002400 12.777504 0.315300
			CHANNELS 3 Xrotation Yrotation Zrotation
			JOINT Spine1
			{
				OFFSET -0.002067 5.816869 0.032633
				CHANNELS 3 Xrotation Yrotation Zrotation
				JOINT Spine1_split
				{
					OFFSET -0.002067 5.816869 0.032633
					CHANNELS 3 Xrotation Yrotation Zrotation
					JOINT Spine2
					{
						OFFSET -0.002067 5.816869 0.032633
						CHANNELS 3 Xrotation Yrotation Zrotation
						JOINT Neck_virtual
						{
							OFFSET 0.000000 0.000000 0.000000
							CHANNELS 3 Xrotation Yrotation Zrotation
							JOINT Neck
							{
								OFFSET -0.003700 21.199493 -0.826900
								CHANNELS 3 Xrotation Yrotation Zrotation
								JOINT Head
								{
									OFFSET 0.000000 20.442200 4.834800
									CHANNELS 3 Xrotation Yrotation Zrotation
									JOINT HeadTop_End
									{
										OFFSET 0.000000 34.668396 4.968400
										CHANNELS 3 Xrotation Yrotation Zrotation
										End Site
										{
											OFFSET 0 0 0
										}
									}
								}
							}
						}
						JOINT LeftShoulder_virtual
						{
							OFFSET 0.000000 0.000000 0.000000
							CHANNELS 3 Xrotation Yrotation Zrotation
							JOINT LeftShoulder
							{
								OFFSET 3.288150 8.794197 -1.372250
								CHANNELS 3 Xrotation Yrotation Zrotation
								JOINT LeftShoulder_split
								{
									OFFSET 3.288150 8.794197 -1.372250
									CHANNELS 3 Xrotation Yrotation Zrotation
									JOINT LeftArm
									{
										OFFSET 11.953299 -2.279007 -0.146200
										CHANNELS 3 Xrotation Yrotation Zrotation
										JOINT LeftForeArm
										{
											OFFSET 18.448900 0.000000 0.000000
											CHANNELS 3 Xrotation Yrotation Zrotation
											JOINT LeftHand
											{
												OFFSET 29.527798 0.000000 0.000000
												CHANNELS 3 Xrotation Yrotation Zrotation
												End Site
												{
													OFFSET 0 0 0
												}
											}
										}
									}
								}
							}
						}
						JOINT RightShoulder_virtual
						{
							OFFSET 0.000000 0.000000 0.000000
							CHANNELS 3 Xrotation Yrotation Zrotation
							JOINT RightShoulder
							{
								OFFSET -3.249400 8.794197 -1.372250
								CHANNELS 3 Xrotation Yrotation Zrotation
								JOINT RightShoulder_split
								{
									OFFSET -3.249400 8.794197 -1.372250
									CHANNELS 3 Xrotation Yrotation Zrotation
									JOINT RightArm
									{
										OFFSET -11.953299 -2.279007 -0.146200
										CHANNELS 3 Xrotation Yrotation Zrotation
										JOINT RightForeArm
										{
											OFFSET -18.448900 0.000000 0.000000
											CHANNELS 3 Xrotation Yrotation Zrotation
											JOINT RightHand
											{
												OFFSET -29.527802 0.000000 0.000000
												CHANNELS 3 Xrotation Yrotation Zrotation
												End Site
												{
													OFFSET 0 0 0
												}
											}
										}
									}
								}
							}
						}
					}
				}
			}
		}
	}
}
MOTION
Frames: 8
Frame Time: 0.03333333
-6.558671 96.474617 0.482944 0.000000 0.000000 0.000000 2.465135 27.977247 0.616744 -33.489661 -23.173889 0.634379 27.688882 15.591804 -7.563465 4.435215 -3.203569 -5.837690 -2.984901 -1.725344 -0.462252 0.000000 0.000000 0.000000 2.465135 27.977247 0.616744 -5.220350 -27.028061 -9.420030 28.798786 -8.715829 7.570787 -24.361352 -10.490710 0.638816 -1.306430 -0.028481 0.200605 0.000000 0.000000 0.000000 2.465135 27.977247 0.616744 3.895834 4.669726 -1.601774 0.662380 3.033942 0.848256 0.000000 0.000000 0.000000 0.000000 0.000000 0.000000 0.672735 3.142734 0.838938 -2.710827 10.151294 -6.043549 -8.274086 5.419457 8.279209 0.000000 0.000000 0.000000 0.672735 3.142734 0.838938 -0.170428 1.694762 -1.674852 0.000000 0.000000 0.000000 -70.359158 1.043899 -26.985326 2.443069 -70.793258 3.754349 0.000000 0.000000 0.000000 0.672735 3.142734 0.838938 4.020284 15.450585 6.652471 0.000000 0.000000 0.000000 13.125178 -8.190056 63.320805 15.659588 40.753526 -6.335575 0.000000 0.000000 0.000000 
-6.584999 96.521057 0.262230 0.000000 0.000000 0.000000 2.952844 25.154011 0.263090 -33.298767 -21.861742 2.021920 28.118784 16.198545 -7.590820 4.066924 -2.755954 -6.086665 -3.078452 -1.876307 -0.501847 0.000000 0.000000 0.000000 2.952844 25.154011 0.263090 -6.415638 -24.918854 -9.254175 29.103648 -8.219526 7.315035 -23.982049 -10.230010 0.619969 -1.298631 -0.028008 0.181752 0.000000 0.000000 0.000000 2.952844 25.154011 0.263090 4.025181 4.524926 -1.616311 0.745715 2.934851 0.846917 0.000000 0.000000 0.000000 0.000000 0.000000 0.000000 0.756889 3.044790 0.839890 -3.457281 7.577840 -5.438824 -6.770384 3.128965 8.503117 0.000000 0.000000 0.000000 0.756889 3.044790 0.839890 -0.084037 0.806785 -1.884202 0.000000 0.000000 0.000000 -70.540281 1.291849 -27.179155 2.895121 -73.071051 3.786816 0.000000 0.000000 0.000000 0.756889 3.044790 0.839890 4.018020 15.343492 6.386901 0.000000 0.000000 0.000000 12.582825 -8.065747 63.241849 15.851389 41.731971 -6.506761 0.000000 0.000000 0.000000 
-6.588857 96.560326 0.003532 0.000000 0.000000 0.000000 3.555729 22.175580 -0.094766 -33.294549 -21.117418 3.254732 28.633217 17.208310 -7.646737 3.724523 -2.028060 -6.466265 -3.129709 -1.945501 -0.512977 0.000000 0.000000 0.000000 3.555729 22.175580 -0.094766 -7.833866 -22.688804 -9.108498 29.485168 -7.728215 7.114857 -23.552166 -9.964059 0.601993 -1.290837 -0.027610 0.165122 0.000000 0.000000 0.000000 3.555729 22.175580 -0.094766 4.125369 4.314497 -1.659599 0.813767 2.798219 0.871274 0.000000 0.000000 0.000000 0.000000 0.000000 0.000000 0.822899 2.911499 0.866820 -4.434307 5.616291 -5.025565 -5.511907 1.377571 8.838562 0.000000 0.000000 0.000000 0.822899 2.911499 0.866820 0.049265 0.112965 -1.841731 0.000000 0.000000 0.000000 -70.965358 1.555723 -28.323615 3.446409 -75.023440 3.823160 0.000000 0.000000 0.000000 0.822899 2.911499 0.866820 4.069650 15.320693 6.024854 0.000000 0.000000 0.000000 12.145398 -7.778631 63.262517 16.010670 42.685342 -6.730045 0.000000 0.000000 0.000000 
-6.571406 96.609222 -0.282478 0.000000 0.000000 0.000000 4.250172 18.988793 -0.445640 -33.361554 -20.745204 4.394531 29.214317 18.637672 -7.665012 3.375780 -0.989966 -7.025459 -3.140429 -1.957293 -0.512786 0.000000 0.000000 0.000000 4.250172 18.988793 -0.445640 -9.386282 -20.375137 -8.923370 29.807506 -7.191586 6.946569 -23.004376 -9.667102 0.643980 -1.288603 -0.027447 0.158485 0.000000 0.000000 0.000000 4.250172 18.988793 -0.445640 4.194759 4.138447 -1.689232 0.895980 2.686893 0.916957 0.000000 0.000000 0.000000 0.000000 0.000000 0.000000 0.902541 2.804683 0.916454 -5.834663 3.676891 -4.812160 -4.270058 -0.536821 9.458445 0.000000 0.000000 0.000000 0.902541 2.804683 0.916454 -0.033588 -0.456571 -1.544512 0.000000 0.000000 0.000000 -71.151310 1.754725 -30.563898 3.947338 -76.397401 4.010040 0.000000 0.000000 0.000000 0.902541 2.804683 0.916454 4.107274 15.021811 5.670996 0.000000 0.000000 0.000000 11.924078 -7.209785 63.117314 16.375240 43.773675 -6.874431 0.000000 0.000000 0.000000 
-6.515297 96.678673 -0.573956 0.000000 0.000000 0.000000 4.979206 15.518391 -0.775583 -33.436269 -20.243670 5.652515 29.912086 20.171476 -7.705212 3.036246 0.142210 -7.628997 -3.150091 -1.967628 -0.512896 0.000000 0.000000 0.000000 4.979206 15.518391 -0.775583 -11.015813 -18.059640 -8.574523 30.039408 -6.481819 6.653705 -22.371822 -9.263755 0.609269 -1.288305 -0.027475 0.159687 0.000000 0.000000 0.000000 4.979206 15.518391 -0.775583 4.297575 3.919876 -1.740818 0.966083 2.550130 0.971378 0.000000 0.000000 0.000000 0.000000 0.000000 0.000000 0.969174 2.673406 0.972874 -7.688303 0.991037 -4.386639 -2.678514 -2.893388 9.949198 0.000000 0.000000 0.000000 0.969174 2.673406 0.972874 -0.015765 -0.910669 -1.245245 0.000000 0.000000 0.000000 -71.114004 1.752286 -32.948068 4.570732 -77.720975 4.244590 0.000000 0.000000 0.000000 0.969174 2.673406 0.972874 4.169833 14.682248 5.352212 0.000000 0.000000 0.000000 11.719940 -6.389694 62.862493 16.656630 44.636143 -6.992364 0.000000 0.000000 0.000000 
-6.415415 96.761398 -0.847973 0.000000 0.000000 0.000000 5.688682 11.710144 -1.070178 -33.417257 -19.567263 7.071982 30.709989 21.762349 -7.768876 2.643657 1.329631 -8.266113 -3.158561 -1.976331 -0.512906 0.000000 0.000000 0.000000 5.688682 11.710144 -1.070178 -12.665900 -15.738779 -8.063165 30.185680 -5.626238 6.230692 -21.596157 -8.801650 0.649507 -1.310502 -0.028635 0.207450 0.000000 0.000000 0.000000 5.688682 11.710144 -1.070178 4.371482 3.672898 -1.743792 1.078605 2.380406 0.982561 0.000000 0.000000 0.000000 0.000000 0.000000 0.000000 1.082127 2.506124 0.989467 -9.865803 -2.833461 -3.739664 -0.630943 -6.097439 10.088655 0.000000 0.000000 0.000000 1.082127 2.506124 0.989467 0.050821 -1.617020 -1.107898 0.000000 0.000000 0.000000 -70.898907 1.313856 -34.708829 5.127680 -78.615450 4.478189 0.000000 0.000000 0.000000 1.082127 2.506124 0.989467 4.204817 14.386293 5.064109 0.000000 0.000000 0.000000 11.404992 -5.538689 62.463412 16.901552 45.248583 -6.999886 0.000000 0.000000 0.000000 
-6.269286 96.843452 -1.091087 0.000000 0.000000 0.000000 6.346359 7.578430 -1.301972 -33.282368 -18.650236 8.639788 31.597681 23.327077 -7.860142 2.183030 2.502405 -8.895181 -3.165646 -1.983688 -0.512797 0.000000 0.000000 0.000000 6.346359 7.578430 -1.301972 -14.286663 -13.251697 -7.648217 30.275497 -4.611263 6.063924 -20.564313 -8.241404 0.962311 -1.423252 -0.035040 0.448615 0.000000 0.000000 0.000000 6.346359 7.578430 -1.301972 4.438501 3.381861 -1.731605 1.141646 2.172354 0.959689 0.000000 0.000000 0.000000 0.000000 0.000000 0.000000 1.147684 2.297733 0.970187 -11.708326 -7.727779 -2.808859 1.413963 -10.061138 9.810009 0.000000 0.000000 0.000000 1.147684 2.297733 0.970187 0.095521 -2.679217 -1.076289 0.000000 0.000000 0.000000 -70.594486 0.546604 -35.680765 5.305929 -78.635852 4.434105 0.000000 0.000000 0.000000 1.147684 2.297733 0.970187 4.210767 14.259134 4.752733 0.000000 0.000000 0.000000 11.010332 -4.890329 62.097990 17.027911 45.597458 -6.966699 0.000000 0.000000 0.000000 
-6.062872 96.920563 -1.301395 0.000000 0.000000 0.000000 6.932257 3.194002 -1.409952 -33.029118 -17.426329 10.268842 32.503637 24.766792 -7.968298 1.665242 3.597078 -9.498621 -3.171212 -1.989217 -0.512521 0.000000 0.000000 0.000000 6.932257 3.194002 -1.409952 -15.921985 -10.910831 -7.134206 30.344806 -3.407141 5.703233 -19.511784 -7.593576 1.242976 -1.518154 -0.036449 0.660293 0.000000 0.000000 0.000000 6.932257 3.194002 -1.409952 4.490324 2.997211 -1.734515 1.273257 1.897094 0.915533 0.000000 0.000000 0.000000 0.000000 0.000000 0.000000 1.281596 2.022264 0.932667 -13.586798 -13.159499 -1.696809 3.592323 -14.154643 9.283068 0.000000 0.000000 0.000000 1.281596 2.022264 0.932667 0.108091 -3.452478 -1.235003 0.000000 0.000000 0.000000 -70.751525 -0.500442 -36.415123 4.970566 -77.434606 3.840016 0.000000 0.000000 0.000000 1.281596 2.022264 0.932667 4.296886 14.099431 4.422451 0.000000 0.000000 0.000000 10.149538 -4.186260 61.594742 17.063325 45.580530 -6.796732 0.000000 0.000000 0.000000 
